<svg id="svg" version="1.1" xmlns="http://www.w3.org/2000/svg" xmlns:xlink="http://www.w3.org/1999/xlink" width="400" height="400" viewBox="0, 0, 400,400"><g id="svgg"><path id="path0" d="M71.200 200.000 L 71.200 297.600 134.000 297.600 C 168.540 297.600,196.800 297.493,196.800 297.362 C 196.800 297.231,196.473 296.646,196.073 296.062 C 195.150 294.714,192.744 289.722,191.513 286.600 C 190.553 284.166,190.049 282.601,189.064 279.000 L 188.518 277.000 181.759 276.800 L 175.000 276.600 174.895 275.600 C 174.838 275.050,174.597 273.533,174.361 272.229 C 173.277 266.241,174.108 249.280,175.544 248.100 C 175.974 247.747,177.997 247.600,182.415 247.600 L 188.677 247.600 189.301 244.900 C 190.436 239.982,193.225 233.205,196.009 228.600 C 196.674 227.500,197.330 226.358,197.466 226.063 C 197.623 225.723,195.975 223.783,192.981 220.781 L 188.247 216.035 189.224 214.676 C 194.556 207.254,206.160 196.018,208.508 196.004 C 208.898 196.002,210.451 197.215,211.959 198.700 C 213.467 200.185,215.525 202.194,216.532 203.165 L 218.363 204.931 219.913 203.905 C 222.466 202.216,228.749 199.350,232.800 198.027 C 238.856 196.049,239.023 196.000,239.719 196.000 C 240.305 196.000,240.394 195.211,240.491 189.101 L 240.600 182.203 243.000 181.801 C 246.033 181.294,266.593 181.349,268.200 181.868 L 269.400 182.256 269.600 188.966 L 269.800 195.676 271.400 196.232 C 272.280 196.538,273.369 196.791,273.820 196.794 C 274.271 196.797,274.811 196.950,275.020 197.133 C 275.229 197.315,276.210 197.689,277.200 197.962 C 279.437 198.580,287.352 202.039,287.533 202.477 C 287.607 202.655,287.877 202.804,288.133 202.809 C 288.390 202.814,289.050 203.170,289.600 203.600 C 291.175 204.832,291.497 204.657,296.218 200.000 C 298.670 197.580,300.874 195.600,301.114 195.600 C 303.810 195.600,321.200 213.133,321.200 215.852 C 321.200 216.288,319.348 218.460,316.862 220.939 C 312.780 225.007,311.492 227.200,313.184 227.200 C 313.344 227.200,313.908 228.055,314.437 229.100 C 314.967 230.145,315.535 231.060,315.700 231.133 C 315.865 231.207,316.000 231.491,316.000 231.766 C 316.000 232.040,316.449 233.150,316.998 234.232 C 317.923 236.055,320.237 242.744,321.070 246.000 L 321.428 247.400 325.114 247.515 L 328.800 247.630 328.800 174.991 C 328.800 126.668,328.666 102.436,328.400 102.600 C 328.148 102.756,328.000 107.337,328.000 115.024 L 328.000 127.200 264.200 127.200 L 200.400 127.200 200.400 114.800 L 200.400 102.400 135.800 102.400 L 71.200 102.400 71.200 200.000 M89.633 108.660 C 93.450 110.187,94.857 115.101,92.514 118.715 C 90.622 121.633,87.210 122.657,84.215 121.207 C 76.009 117.235,81.173 105.275,89.633 108.660 M111.845 109.407 C 115.869 112.476,115.369 118.865,110.936 121.022 C 105.166 123.830,98.953 118.091,101.508 112.316 C 103.327 108.203,108.396 106.776,111.845 109.407 M132.398 109.199 C 137.939 113.144,135.515 121.695,128.836 121.763 C 122.233 121.831,119.263 113.407,124.500 109.461 C 126.743 107.771,130.230 107.655,132.398 109.199 M107.069 140.973 C 109.268 141.574,113.730 143.559,114.906 144.459 C 115.567 144.965,115.494 145.232,113.761 148.600 C 111.324 153.336,111.705 153.142,108.079 151.485 C 102.495 148.932,97.768 148.596,95.755 150.608 C 93.800 152.564,95.404 155.020,99.417 156.218 C 113.735 160.490,116.918 163.130,116.874 170.701 C 116.808 182.104,103.746 187.086,88.732 181.435 C 82.056 178.922,81.998 178.813,84.648 173.738 C 86.913 169.403,86.997 169.307,87.891 170.042 C 92.734 174.024,103.165 175.606,105.342 172.690 C 106.898 170.606,105.086 168.798,99.870 167.229 C 87.674 163.561,84.398 160.674,84.408 153.600 C 84.423 143.456,94.864 137.639,107.069 140.973 M147.200 141.282 C 150.940 142.743,154.218 145.283,156.387 148.400 C 156.923 149.170,157.460 149.890,157.581 150.000 C 157.701 150.110,158.130 150.912,158.532 151.782 C 162.206 159.714,161.621 167.590,156.802 175.076 C 156.244 175.941,158.287 178.922,161.325 181.679 C 162.636 182.868,161.755 183.200,157.295 183.200 C 153.110 183.200,153.017 183.180,151.803 182.003 L 150.569 180.807 147.584 182.103 C 134.646 187.725,119.960 176.820,120.007 161.627 C 120.053 147.004,134.390 136.277,147.200 141.282 M176.704 157.300 L 176.809 174.000 186.504 174.006 C 198.158 174.013,197.259 173.604,197.115 178.833 L 197.000 183.000 181.800 183.000 L 166.600 183.000 166.496 162.200 C 166.439 150.760,166.480 141.169,166.588 140.888 C 166.736 140.501,167.988 140.403,171.692 140.488 L 176.600 140.600 176.704 157.300 M137.483 149.789 C 127.661 153.548,128.553 172.163,138.645 174.048 C 140.729 174.437,143.600 174.111,143.600 173.486 C 143.600 173.259,142.311 171.646,140.735 169.901 C 137.320 166.119,137.377 166.015,142.869 166.006 C 146.434 166.000,146.834 166.080,147.946 167.016 L 149.154 168.033 149.670 167.116 C 150.598 165.467,150.300 157.770,149.220 155.504 C 146.846 150.525,141.879 148.107,137.483 149.789 M246.358 234.148 C 241.882 235.620,233.208 241.022,233.198 242.345 C 233.197 242.485,232.663 243.169,232.012 243.864 C 230.817 245.138,229.737 246.860,228.288 249.800 C 227.855 250.680,227.342 251.713,227.150 252.095 C 226.957 252.477,226.800 253.231,226.800 253.771 C 226.800 254.311,226.642 254.851,226.449 254.970 C 225.705 255.430,225.271 262.559,225.765 266.200 C 227.236 277.039,235.463 287.022,245.400 290.027 C 246.280 290.293,247.415 290.702,247.922 290.935 C 249.178 291.513,261.325 291.425,261.521 290.837 C 261.601 290.597,262.181 290.400,262.810 290.400 C 263.438 290.400,264.064 290.220,264.200 290.000 C 264.336 289.780,264.799 289.600,265.229 289.600 C 265.928 289.600,267.469 288.932,268.000 288.399 C 268.110 288.289,268.740 287.931,269.400 287.604 C 280.158 282.276,286.259 267.927,283.146 255.271 C 282.317 251.900,280.557 247.537,279.916 247.267 C 279.742 247.193,279.599 246.923,279.599 246.667 C 279.596 245.812,276.003 241.781,272.997 239.261 C 271.154 237.715,266.224 235.182,263.600 234.431 C 262.610 234.148,261.387 233.755,260.881 233.558 C 258.970 232.813,249.215 233.209,246.358 234.148 M321.033 278.500 C 320.696 280.621,318.625 286.885,317.582 288.938 C 317.152 289.784,316.800 290.729,316.800 291.038 C 316.800 291.347,316.620 291.600,316.400 291.600 C 316.180 291.600,316.000 291.924,316.000 292.320 C 316.000 292.716,315.837 293.211,315.638 293.420 C 315.092 293.992,313.600 296.769,313.600 297.212 C 313.600 297.449,316.559 297.600,321.200 297.600 L 328.800 297.600 328.800 287.200 L 328.800 276.800 325.051 276.800 L 321.302 276.800 321.033 278.500 " stroke="none" fill="#ececec" fill-rule="evenodd"></path><path id="path1" d="M97.600 140.828 C 96.170 140.954,94.640 141.198,94.200 141.371 C 87.895 143.851,85.054 147.635,85.022 153.600 C 84.988 160.085,87.495 162.689,96.600 165.623 C 104.763 168.254,106.400 169.235,106.400 171.491 C 106.400 176.062,98.468 176.076,89.464 171.520 C 88.180 170.870,87.075 170.397,87.008 170.469 C 86.707 170.797,83.200 177.768,83.200 178.040 C 83.200 178.470,88.755 181.200,89.630 181.200 C 90.028 181.200,90.452 181.360,90.573 181.556 C 91.077 182.373,98.865 183.248,102.960 182.948 C 111.685 182.309,116.400 177.994,116.400 170.647 C 116.400 163.681,113.167 160.755,102.000 157.615 C 101.010 157.337,99.840 156.961,99.400 156.780 C 98.960 156.598,98.181 156.332,97.668 156.188 C 96.131 155.756,94.400 153.648,94.400 152.210 C 94.400 148.061,102.507 147.629,109.166 151.422 C 110.137 151.976,111.072 152.287,111.244 152.114 C 111.977 151.377,114.808 145.398,114.637 144.951 C 114.444 144.449,112.784 143.631,108.600 141.977 C 106.274 141.057,101.122 140.519,97.600 140.828 M135.800 141.200 C 135.664 141.420,135.124 141.600,134.600 141.600 C 134.076 141.600,133.536 141.780,133.400 142.000 C 133.264 142.220,132.881 142.400,132.548 142.400 C 131.646 142.400,128.684 144.556,126.400 146.877 C 120.745 152.621,118.781 163.268,122.136 169.992 C 122.501 170.724,122.800 171.485,122.800 171.683 C 122.800 174.019,129.517 180.319,133.400 181.625 C 134.280 181.921,135.171 182.307,135.380 182.482 C 135.589 182.657,137.796 182.800,140.284 182.800 C 144.766 182.800,145.960 182.531,149.295 180.767 C 150.463 180.149,151.109 180.348,152.000 181.600 L 152.854 182.800 157.027 182.800 C 161.370 182.800,161.762 182.631,160.355 181.362 C 159.891 180.943,158.638 179.594,157.571 178.364 L 155.632 176.128 156.400 174.764 C 159.891 168.566,161.694 158.334,159.655 156.295 C 159.405 156.045,159.200 155.514,159.200 155.116 C 159.200 153.360,155.526 147.392,153.337 145.594 C 150.817 143.524,147.481 141.600,146.411 141.600 C 145.991 141.600,145.536 141.420,145.400 141.200 C 145.259 140.971,143.204 140.800,140.600 140.800 C 137.996 140.800,135.941 140.971,135.800 141.200 M166.896 161.700 L 167.000 182.600 181.900 182.705 L 196.800 182.810 196.800 178.812 L 196.800 174.814 186.700 174.707 L 176.600 174.600 176.496 157.700 L 176.391 140.800 171.592 140.800 L 166.793 140.800 166.896 161.700 M145.371 150.162 C 148.830 152.189,150.800 156.489,150.800 162.013 C 150.800 167.164,149.703 169.432,148.001 167.801 C 146.970 166.813,146.758 166.775,142.852 166.885 L 138.779 167.000 141.380 169.800 C 145.468 174.201,145.409 174.600,140.667 174.600 C 135.072 174.600,130.485 170.369,130.372 165.104 C 130.356 164.387,130.214 163.471,130.056 163.070 C 129.654 162.051,130.355 157.737,131.252 155.704 C 131.663 154.772,132.006 153.872,132.013 153.704 C 132.027 153.355,133.446 151.746,134.696 150.662 C 137.156 148.528,142.182 148.293,145.371 150.162 M250.800 181.650 C 248.930 181.855,245.919 182.216,244.109 182.452 L 240.819 182.880 240.709 189.524 L 240.600 196.168 239.200 196.646 C 238.430 196.910,235.784 197.770,233.319 198.559 C 228.388 200.138,221.011 203.577,218.926 205.270 C 218.184 205.873,217.345 205.230,212.873 200.638 C 210.603 198.307,208.658 196.400,208.549 196.400 C 207.205 196.400,195.612 207.208,192.334 211.517 C 191.380 212.771,190.285 214.147,189.900 214.574 C 188.819 215.774,188.915 215.929,193.600 220.600 C 198.586 225.571,198.536 225.425,196.476 228.859 C 194.830 231.602,194.375 232.548,191.979 238.200 C 191.395 239.579,190.348 242.896,189.643 245.600 L 188.966 248.200 182.183 248.400 L 175.400 248.600 175.015 251.200 C 174.520 254.537,174.524 269.746,175.020 273.400 L 175.400 276.200 182.256 276.309 L 189.112 276.419 189.375 277.709 C 189.520 278.419,189.739 279.587,189.863 280.304 C 189.987 281.021,190.249 281.706,190.444 281.827 C 190.640 281.948,190.800 282.451,190.800 282.944 C 190.800 283.437,190.949 284.011,191.130 284.220 C 191.312 284.429,191.713 285.410,192.021 286.400 C 192.567 288.153,196.015 295.252,196.757 296.151 C 198.357 298.088,197.844 299.195,193.219 303.793 C 190.789 306.209,188.800 308.353,188.800 308.558 C 188.800 310.810,206.334 328.400,208.579 328.400 C 208.817 328.400,210.938 326.420,213.292 324.000 C 217.852 319.314,218.225 319.128,220.400 320.461 C 224.761 323.133,231.119 325.836,236.764 327.417 C 240.976 328.597,240.787 328.210,240.794 335.650 L 240.800 341.900 241.926 342.125 C 247.842 343.308,261.282 343.424,266.900 342.340 L 269.200 341.896 269.200 335.722 C 269.200 329.221,269.467 328.000,270.886 328.000 C 273.365 328.000,282.754 324.268,288.914 320.833 C 291.749 319.252,291.080 318.958,296.340 324.100 C 298.760 326.465,300.946 328.400,301.199 328.400 C 303.555 328.400,321.207 310.835,321.199 308.498 C 321.199 308.334,319.129 306.144,316.599 303.632 C 314.070 301.119,312.001 298.959,312.003 298.832 C 312.005 298.704,312.815 297.184,313.803 295.454 C 314.791 293.724,315.600 292.243,315.600 292.164 C 315.600 292.085,316.140 290.841,316.800 289.400 C 317.460 287.959,318.000 286.550,318.000 286.270 C 318.000 285.989,318.151 285.589,318.337 285.380 C 318.646 285.030,319.800 281.379,320.669 278.000 L 321.029 276.600 327.898 276.491 L 334.767 276.381 334.950 275.091 C 336.299 265.579,336.260 255.404,334.853 249.400 L 334.571 248.200 327.800 248.000 L 321.028 247.800 320.272 245.000 C 318.725 239.267,316.504 234.026,312.886 227.571 L 311.636 225.342 316.218 220.799 C 318.738 218.301,320.800 216.048,320.800 215.794 C 320.800 213.392,303.602 196.400,301.171 196.400 C 300.864 196.400,298.604 198.403,296.149 200.851 L 291.686 205.301 290.543 204.702 C 281.446 199.934,277.680 198.377,270.800 196.544 L 269.400 196.171 269.290 189.726 C 269.212 185.140,269.035 183.161,268.676 182.863 C 267.503 181.890,255.833 181.098,250.800 181.650 M263.200 233.685 C 284.727 240.475,291.798 266.887,276.352 282.806 C 274.502 284.713,271.084 287.600,270.676 287.600 C 270.544 287.600,269.519 288.140,268.400 288.800 C 267.281 289.460,266.023 290.000,265.606 290.000 C 265.189 290.000,264.736 290.180,264.600 290.400 C 264.464 290.620,263.924 290.800,263.400 290.800 C 262.876 290.800,262.336 290.980,262.200 291.200 C 262.064 291.420,261.183 291.600,260.243 291.600 C 259.303 291.600,257.514 291.805,256.268 292.055 C 252.419 292.828,245.086 291.253,240.682 288.708 C 239.628 288.099,238.616 287.600,238.433 287.600 C 238.046 287.600,231.258 280.992,230.390 279.770 C 228.720 277.419,226.819 273.400,226.054 270.600 C 224.958 266.591,224.804 265.598,224.802 262.520 C 224.798 256.470,227.432 248.154,230.389 244.884 C 230.729 244.508,231.598 243.444,232.321 242.521 C 238.772 234.274,252.559 230.329,263.200 233.685 " stroke="none" fill="#054465" fill-rule="evenodd"></path><path id="path2" d="M328.800 175.567 L 328.800 248.000 331.576 248.000 C 334.838 248.000,334.809 247.968,335.268 251.957 C 336.202 260.065,336.104 267.338,334.956 275.100 L 334.764 276.400 331.782 276.400 L 328.800 276.400 328.800 287.000 L 328.800 297.600 320.643 297.600 C 312.478 297.600,312.000 297.675,312.000 298.965 C 312.000 299.019,314.070 301.119,316.599 303.632 C 319.129 306.144,321.199 308.334,321.199 308.498 C 321.207 310.835,303.555 328.400,301.199 328.400 C 300.946 328.400,298.760 326.465,296.340 324.100 C 291.080 318.958,291.749 319.252,288.914 320.833 C 284.855 323.096,281.493 324.650,278.000 325.878 C 272.791 327.708,271.813 328.000,270.886 328.000 C 269.467 328.000,269.200 329.221,269.200 335.722 L 269.200 341.896 266.900 342.340 C 261.282 343.424,247.842 343.308,241.926 342.125 L 240.800 341.900 240.794 335.650 C 240.787 328.210,240.976 328.597,236.764 327.417 C 231.119 325.836,224.761 323.133,220.400 320.461 C 218.225 319.128,217.852 319.314,213.292 324.000 C 210.938 326.420,208.817 328.400,208.579 328.400 C 206.334 328.400,188.800 310.810,188.800 308.558 C 188.800 308.353,190.785 306.209,193.212 303.793 C 196.035 300.982,197.584 299.145,197.512 298.692 C 197.413 298.066,72.772 297.495,72.149 298.118 C 72.087 298.180,94.660 320.859,122.312 348.515 L 172.587 398.800 175.460 398.800 C 177.362 398.800,178.388 398.965,178.496 399.287 C 178.618 399.655,182.454 399.813,194.156 399.935 C 210.775 400.107,225.333 399.739,224.973 399.156 C 224.789 398.859,228.697 398.569,230.270 398.763 C 230.528 398.795,230.854 398.636,230.993 398.411 C 231.133 398.185,232.047 398.000,233.024 398.000 C 234.001 398.000,234.800 397.851,234.800 397.668 C 234.800 397.486,235.835 397.296,237.100 397.245 C 238.365 397.195,239.571 396.984,239.780 396.777 C 239.989 396.570,240.563 396.400,241.056 396.400 C 241.549 396.400,242.064 396.220,242.200 396.000 C 242.336 395.780,243.427 395.600,244.624 395.600 C 245.821 395.600,246.800 395.420,246.800 395.200 C 246.800 394.980,247.172 394.800,247.626 394.800 C 248.081 394.800,248.801 394.614,249.226 394.386 C 249.804 394.077,250.002 394.102,250.006 394.486 C 250.011 394.869,250.089 394.880,250.314 394.526 C 250.479 394.265,251.100 393.987,251.692 393.908 C 252.285 393.829,252.897 393.637,253.052 393.482 C 253.207 393.327,253.944 393.200,254.690 393.200 C 255.493 393.200,255.946 393.037,255.800 392.800 C 255.656 392.567,256.063 392.400,256.776 392.400 C 257.485 392.400,258.003 392.190,258.006 391.900 C 258.010 391.567,258.142 391.600,258.400 392.000 C 258.613 392.330,258.791 392.398,258.794 392.152 C 258.797 391.905,259.700 391.584,260.800 391.438 C 261.900 391.292,262.800 391.038,262.800 390.873 C 262.800 390.709,263.287 390.534,263.882 390.485 C 264.478 390.436,265.144 390.216,265.362 389.998 C 265.581 389.779,266.163 389.600,266.656 389.600 C 267.149 389.600,267.664 389.420,267.800 389.200 C 267.936 388.980,268.451 388.800,268.944 388.800 C 269.437 388.800,270.032 388.608,270.268 388.372 C 270.503 388.137,270.944 387.899,271.248 387.843 C 271.551 387.787,272.497 387.440,273.349 387.071 C 274.201 386.702,275.146 386.400,275.449 386.400 C 275.752 386.400,276.000 386.220,276.000 386.000 C 276.000 385.780,276.439 385.600,276.976 385.600 C 277.513 385.600,278.064 385.420,278.200 385.200 C 278.336 384.980,278.797 384.800,279.224 384.800 C 279.651 384.800,280.000 384.620,280.000 384.400 C 280.000 384.180,280.278 384.000,280.617 384.000 C 280.956 384.000,281.620 383.640,282.092 383.200 C 282.564 382.760,283.367 382.400,283.875 382.400 C 284.384 382.400,284.800 382.243,284.800 382.050 C 284.800 381.858,285.318 381.596,285.952 381.470 C 286.585 381.343,287.382 380.960,287.723 380.620 C 288.064 380.279,288.615 380.000,288.948 380.000 C 289.281 380.000,289.664 379.820,289.800 379.600 C 289.936 379.380,290.397 379.200,290.824 379.200 C 291.251 379.200,291.600 379.054,291.600 378.875 C 291.600 378.696,292.222 378.305,292.982 378.007 C 293.742 377.709,294.271 377.315,294.158 377.132 C 294.045 376.950,294.413 376.800,294.976 376.800 C 295.539 376.800,296.000 376.620,296.000 376.400 C 296.000 376.180,296.270 376.000,296.600 376.000 C 296.930 376.000,297.200 375.834,297.200 375.632 C 297.200 375.429,297.732 375.147,298.381 375.004 C 299.031 374.861,299.976 374.437,300.481 374.062 C 300.987 373.686,301.895 373.128,302.500 372.822 C 303.105 372.515,303.600 372.105,303.600 371.909 C 303.600 371.713,303.773 371.660,303.985 371.791 C 304.197 371.922,304.737 371.663,305.185 371.215 C 305.633 370.767,306.045 370.437,306.100 370.482 C 306.305 370.649,308.800 369.015,308.800 368.714 C 308.800 368.541,309.078 368.400,309.418 368.400 C 309.758 368.400,310.472 367.964,311.005 367.431 C 311.538 366.898,312.340 366.346,312.787 366.204 C 313.234 366.062,313.600 365.778,313.600 365.573 C 313.600 365.368,313.827 365.200,314.104 365.200 C 314.382 365.200,315.324 364.582,316.198 363.827 C 317.072 363.071,317.854 362.521,317.936 362.603 C 318.189 362.856,319.127 361.819,318.934 361.500 C 318.835 361.335,319.085 361.200,319.490 361.200 C 320.162 361.200,321.636 360.118,324.260 357.700 C 324.797 357.205,325.408 356.800,325.618 356.800 C 325.828 356.800,326.000 356.649,326.000 356.464 C 326.000 356.280,326.460 355.919,327.023 355.663 C 327.633 355.384,327.931 355.011,327.761 354.736 C 327.585 354.452,327.653 354.385,327.938 354.562 C 328.192 354.719,328.400 354.627,328.400 354.357 C 328.400 354.087,328.505 353.971,328.633 354.099 C 328.761 354.227,329.769 353.447,330.873 352.366 C 331.978 351.285,333.133 350.400,333.441 350.400 C 333.748 350.400,334.000 350.040,334.000 349.600 C 334.000 349.145,334.267 348.800,334.618 348.800 C 335.346 348.800,337.262 346.995,336.909 346.642 C 336.776 346.509,336.878 346.400,337.135 346.400 C 337.393 346.400,338.503 345.455,339.602 344.300 C 342.033 341.745,341.745 342.033,344.300 339.602 C 345.455 338.503,346.400 337.393,346.400 337.135 C 346.400 336.878,346.509 336.776,346.642 336.909 C 346.995 337.262,348.800 335.346,348.800 334.618 C 348.800 334.267,349.145 334.000,349.600 334.000 C 350.040 334.000,350.400 333.748,350.400 333.441 C 350.400 333.133,351.285 331.978,352.366 330.873 C 353.447 329.769,354.227 328.761,354.099 328.633 C 353.971 328.505,354.087 328.400,354.357 328.400 C 354.627 328.400,354.719 328.192,354.562 327.938 C 354.385 327.653,354.452 327.585,354.736 327.761 C 355.011 327.931,355.384 327.633,355.663 327.023 C 355.919 326.460,356.280 326.000,356.464 326.000 C 356.649 326.000,356.800 325.828,356.800 325.618 C 356.800 325.408,357.205 324.797,357.700 324.260 C 360.147 321.605,361.200 320.157,361.200 319.447 C 361.200 319.018,361.309 318.776,361.443 318.909 C 361.715 319.181,362.788 318.319,362.589 317.988 C 362.519 317.872,363.078 317.064,363.831 316.193 C 364.584 315.322,365.200 314.382,365.200 314.104 C 365.200 313.827,365.368 313.600,365.573 313.600 C 365.778 313.600,366.062 313.234,366.204 312.787 C 366.346 312.340,366.898 311.538,367.431 311.005 C 367.964 310.472,368.400 309.758,368.400 309.418 C 368.400 309.078,368.541 308.800,368.714 308.800 C 369.025 308.800,370.293 306.877,370.364 306.300 C 370.384 306.135,370.767 305.633,371.215 305.185 C 371.663 304.737,371.922 304.197,371.791 303.985 C 371.660 303.773,371.713 303.600,371.909 303.600 C 372.105 303.600,372.515 303.105,372.822 302.500 C 373.128 301.895,373.686 300.987,374.062 300.481 C 374.437 299.976,374.861 299.031,375.004 298.381 C 375.147 297.732,375.429 297.200,375.632 297.200 C 375.834 297.200,376.000 296.930,376.000 296.600 C 376.000 296.270,376.180 296.000,376.400 296.000 C 376.620 296.000,376.800 295.539,376.800 294.976 C 376.800 294.413,376.950 294.045,377.132 294.158 C 377.315 294.271,377.709 293.742,378.007 292.982 C 378.305 292.222,378.696 291.600,378.875 291.600 C 379.054 291.600,379.200 291.251,379.200 290.824 C 379.200 290.397,379.380 289.936,379.600 289.800 C 379.820 289.664,380.000 289.281,380.000 288.948 C 380.000 288.615,380.279 288.064,380.620 287.723 C 380.960 287.382,381.343 286.585,381.470 285.952 C 381.596 285.318,381.858 284.800,382.050 284.800 C 382.243 284.800,382.400 284.384,382.400 283.875 C 382.400 283.367,382.760 282.564,383.200 282.092 C 383.640 281.620,384.000 280.956,384.000 280.617 C 384.000 280.278,384.180 280.000,384.400 280.000 C 384.620 280.000,384.800 279.651,384.800 279.224 C 384.800 278.797,384.980 278.336,385.200 278.200 C 385.420 278.064,385.600 277.513,385.600 276.976 C 385.600 276.439,385.780 276.000,386.000 276.000 C 386.220 276.000,386.400 275.752,386.400 275.449 C 386.400 275.146,386.702 274.201,387.071 273.349 C 387.440 272.497,387.787 271.551,387.843 271.248 C 387.899 270.944,388.137 270.503,388.372 270.268 C 388.608 270.032,388.800 269.437,388.800 268.944 C 388.800 268.451,388.980 267.936,389.200 267.800 C 389.420 267.664,389.600 267.149,389.600 266.656 C 389.600 266.163,389.779 265.581,389.998 265.362 C 390.216 265.144,390.436 264.478,390.485 263.882 C 390.534 263.287,390.709 262.800,390.873 262.800 C 391.038 262.800,391.292 261.900,391.438 260.800 C 391.584 259.700,391.905 258.797,392.152 258.794 C 392.398 258.791,392.330 258.613,392.000 258.400 C 391.600 258.142,391.567 258.010,391.900 258.006 C 392.190 258.003,392.400 257.485,392.400 256.776 C 392.400 256.063,392.567 255.656,392.800 255.800 C 393.037 255.946,393.200 255.493,393.200 254.690 C 393.200 253.944,393.327 253.207,393.482 253.052 C 393.637 252.897,393.829 252.285,393.908 251.692 C 393.987 251.100,394.265 250.479,394.526 250.314 C 394.880 250.089,394.869 250.011,394.486 250.006 C 394.102 250.002,394.077 249.804,394.386 249.226 C 394.614 248.801,394.800 248.081,394.800 247.626 C 394.800 247.172,394.980 246.800,395.200 246.800 C 395.420 246.800,395.600 245.821,395.600 244.624 C 395.600 243.427,395.780 242.336,396.000 242.200 C 396.220 242.064,396.400 241.549,396.400 241.056 C 396.400 240.563,396.570 239.989,396.777 239.780 C 396.984 239.571,397.195 238.365,397.245 237.100 C 397.296 235.835,397.486 234.800,397.668 234.800 C 397.851 234.800,398.000 234.001,398.000 233.024 C 398.000 232.047,398.185 231.133,398.411 230.993 C 398.636 230.854,398.795 230.528,398.763 230.270 C 398.569 228.697,398.859 224.789,399.156 224.973 C 399.739 225.333,400.107 210.775,399.935 194.156 C 399.813 182.454,399.655 178.618,399.287 178.496 C 398.965 178.388,398.800 177.361,398.800 175.457 L 398.800 172.580 364.196 137.990 C 345.163 118.966,329.413 103.340,329.196 103.267 C 328.936 103.179,328.800 127.999,328.800 175.567 " stroke="none" fill="#ab4c34" fill-rule="evenodd"></path><path id="path3" d="M178.700 0.273 C 176.555 0.359,174.800 0.602,174.800 0.814 C 174.800 1.027,173.551 1.200,172.024 1.200 C 170.497 1.200,169.136 1.380,169.000 1.600 C 168.864 1.820,167.773 2.000,166.576 2.000 C 165.379 2.000,164.400 2.180,164.400 2.400 C 164.400 2.620,163.410 2.800,162.200 2.800 C 160.990 2.800,160.000 2.980,160.000 3.200 C 160.000 3.420,159.280 3.600,158.400 3.600 C 157.520 3.600,156.800 3.780,156.800 4.000 C 156.800 4.220,155.900 4.400,154.800 4.400 C 153.700 4.400,152.800 4.580,152.800 4.800 C 152.800 5.020,152.080 5.200,151.200 5.200 C 150.320 5.200,149.600 5.380,149.600 5.600 C 149.600 5.820,148.970 6.000,148.200 6.000 C 147.430 6.000,146.800 6.180,146.800 6.400 C 146.800 6.620,146.170 6.800,145.400 6.800 C 144.630 6.800,144.000 6.980,144.000 7.200 C 144.000 7.420,143.370 7.600,142.600 7.600 C 141.830 7.600,141.200 7.780,141.200 8.000 C 141.200 8.220,140.753 8.400,140.206 8.400 C 139.350 8.400,132.162 10.584,129.800 11.562 C 127.245 12.620,126.531 12.928,125.905 13.247 C 125.523 13.441,124.938 13.600,124.605 13.600 C 124.272 13.600,124.000 13.780,124.000 14.000 C 124.000 14.220,123.561 14.400,123.024 14.400 C 122.487 14.400,121.936 14.580,121.800 14.800 C 121.664 15.020,121.203 15.200,120.776 15.200 C 120.349 15.200,120.000 15.380,120.000 15.600 C 120.000 15.820,119.640 16.000,119.200 16.000 C 118.760 16.000,118.400 16.180,118.400 16.400 C 118.400 16.620,118.040 16.800,117.600 16.800 C 117.160 16.800,116.800 16.980,116.800 17.200 C 116.800 17.420,116.350 17.600,115.800 17.600 C 115.250 17.600,114.800 17.780,114.800 18.000 C 114.800 18.220,114.547 18.400,114.238 18.400 C 113.572 18.400,110.259 20.068,110.067 20.500 C 109.993 20.665,109.588 20.800,109.167 20.800 C 108.745 20.800,108.400 20.980,108.400 21.200 C 108.400 21.420,108.040 21.600,107.600 21.600 C 107.160 21.600,106.800 21.780,106.800 22.000 C 106.800 22.220,106.440 22.400,106.000 22.400 C 105.560 22.400,105.200 22.580,105.200 22.800 C 105.200 23.020,104.964 23.200,104.675 23.200 C 104.387 23.200,103.764 23.560,103.292 24.000 C 102.820 24.440,102.252 24.800,102.030 24.800 C 101.358 24.800,98.800 26.126,98.800 26.474 C 98.800 26.653,98.440 26.800,98.000 26.800 C 97.560 26.800,97.200 26.980,97.200 27.200 C 97.200 27.420,97.007 27.600,96.772 27.600 C 96.537 27.600,95.559 28.140,94.600 28.800 C 93.641 29.460,92.703 30.000,92.516 30.000 C 92.329 30.000,91.917 30.360,91.600 30.800 C 91.283 31.240,90.743 31.600,90.400 31.600 C 90.057 31.600,89.517 31.960,89.200 32.400 C 88.883 32.840,88.343 33.200,88.000 33.200 C 87.657 33.200,87.117 33.560,86.800 34.000 C 86.483 34.440,85.943 34.800,85.600 34.800 C 85.257 34.800,84.717 35.160,84.400 35.600 C 84.083 36.040,83.593 36.400,83.312 36.400 C 83.030 36.400,82.800 36.580,82.800 36.800 C 82.800 37.020,82.570 37.200,82.288 37.200 C 82.007 37.200,81.517 37.560,81.200 38.000 C 80.883 38.440,80.375 38.800,80.072 38.800 C 79.769 38.800,79.017 39.340,78.400 40.000 C 77.783 40.660,77.164 41.200,77.023 41.200 C 76.752 41.200,76.352 41.514,74.349 43.300 C 73.671 43.905,72.958 44.400,72.766 44.400 C 72.574 44.400,71.427 45.390,70.217 46.600 C 69.007 47.810,67.843 48.800,67.629 48.800 C 67.416 48.800,65.297 50.770,62.921 53.179 C 57.684 58.486,58.486 57.684,53.179 62.921 C 50.770 65.297,48.800 67.416,48.800 67.629 C 48.800 67.843,47.810 69.007,46.600 70.217 C 45.390 71.427,44.400 72.574,44.400 72.766 C 44.400 72.958,43.859 73.719,43.199 74.458 C 41.469 76.390,41.200 76.736,41.200 77.023 C 41.200 77.164,40.660 77.783,40.000 78.400 C 39.340 79.017,38.800 79.769,38.800 80.072 C 38.800 80.375,38.440 80.883,38.000 81.200 C 37.560 81.517,37.200 82.007,37.200 82.288 C 37.200 82.570,37.020 82.800,36.800 82.800 C 36.580 82.800,36.400 83.030,36.400 83.312 C 36.400 83.593,36.040 84.083,35.600 84.400 C 35.160 84.717,34.800 85.257,34.800 85.600 C 34.800 85.943,34.440 86.483,34.000 86.800 C 33.560 87.117,33.200 87.657,33.200 88.000 C 33.200 88.343,32.840 88.883,32.400 89.200 C 31.960 89.517,31.600 90.057,31.600 90.400 C 31.600 90.743,31.240 91.283,30.800 91.600 C 30.360 91.917,30.000 92.329,30.000 92.516 C 30.000 92.703,29.460 93.641,28.800 94.600 C 28.140 95.559,27.600 96.537,27.600 96.772 C 27.600 97.007,27.420 97.200,27.200 97.200 C 26.980 97.200,26.800 97.560,26.800 98.000 C 26.800 98.440,26.653 98.800,26.474 98.800 C 26.126 98.800,24.800 101.358,24.800 102.030 C 24.800 102.252,24.440 102.820,24.000 103.292 C 23.560 103.764,23.200 104.387,23.200 104.675 C 23.200 104.964,23.020 105.200,22.800 105.200 C 22.580 105.200,22.400 105.560,22.400 106.000 C 22.400 106.440,22.220 106.800,22.000 106.800 C 21.780 106.800,21.600 107.160,21.600 107.600 C 21.600 108.040,21.420 108.400,21.200 108.400 C 20.980 108.400,20.800 108.745,20.800 109.167 C 20.800 109.588,20.665 109.993,20.500 110.067 C 20.068 110.259,18.400 113.572,18.400 114.238 C 18.400 114.547,18.220 114.800,18.000 114.800 C 17.780 114.800,17.600 115.250,17.600 115.800 C 17.600 116.350,17.420 116.800,17.200 116.800 C 16.980 116.800,16.800 117.160,16.800 117.600 C 16.800 118.040,16.620 118.400,16.400 118.400 C 16.180 118.400,16.000 118.760,16.000 119.200 C 16.000 119.640,15.820 120.000,15.600 120.000 C 15.380 120.000,15.200 120.349,15.200 120.776 C 15.200 121.203,15.020 121.664,14.800 121.800 C 14.580 121.936,14.400 122.487,14.400 123.024 C 14.400 123.561,14.220 124.000,14.000 124.000 C 13.780 124.000,13.600 124.272,13.600 124.605 C 13.600 124.938,13.441 125.523,13.247 125.905 C 13.052 126.287,12.716 127.050,12.500 127.600 C 12.284 128.150,11.910 129.050,11.669 129.600 C 10.701 131.808,8.400 139.274,8.400 140.206 C 8.400 140.753,8.220 141.200,8.000 141.200 C 7.780 141.200,7.600 141.830,7.600 142.600 C 7.600 143.370,7.420 144.000,7.200 144.000 C 6.980 144.000,6.800 144.630,6.800 145.400 C 6.800 146.170,6.620 146.800,6.400 146.800 C 6.180 146.800,6.000 147.430,6.000 148.200 C 6.000 148.970,5.820 149.600,5.600 149.600 C 5.380 149.600,5.200 150.320,5.200 151.200 C 5.200 152.080,5.020 152.800,4.800 152.800 C 4.580 152.800,4.400 153.700,4.400 154.800 C 4.400 155.900,4.220 156.800,4.000 156.800 C 3.780 156.800,3.600 157.520,3.600 158.400 C 3.600 159.280,3.420 160.000,3.200 160.000 C 2.980 160.000,2.800 160.990,2.800 162.200 C 2.800 163.410,2.620 164.400,2.400 164.400 C 2.180 164.400,2.000 165.379,2.000 166.576 C 2.000 167.773,1.820 168.864,1.600 169.000 C 1.380 169.136,1.200 170.482,1.200 171.990 C 1.200 173.829,1.035 174.788,0.700 174.900 C -0.032 175.144,-0.032 224.856,0.700 225.100 C 1.035 225.212,1.200 226.171,1.200 228.010 C 1.200 229.518,1.380 230.864,1.600 231.000 C 1.820 231.136,2.000 232.227,2.000 233.424 C 2.000 234.621,2.180 235.600,2.400 235.600 C 2.620 235.600,2.800 236.590,2.800 237.800 C 2.800 239.010,2.980 240.000,3.200 240.000 C 3.420 240.000,3.600 240.720,3.600 241.600 C 3.600 242.480,3.780 243.200,4.000 243.200 C 4.220 243.200,4.400 244.100,4.400 245.200 C 4.400 246.300,4.580 247.200,4.800 247.200 C 5.020 247.200,5.200 247.920,5.200 248.800 C 5.200 249.680,5.380 250.400,5.600 250.400 C 5.820 250.400,6.000 251.030,6.000 251.800 C 6.000 252.570,6.180 253.200,6.400 253.200 C 6.620 253.200,6.800 253.830,6.800 254.600 C 6.800 255.370,6.980 256.000,7.200 256.000 C 7.420 256.000,7.600 256.630,7.600 257.400 C 7.600 258.170,7.780 258.800,8.000 258.800 C 8.220 258.800,8.400 259.247,8.400 259.794 C 8.400 260.650,10.584 267.838,11.562 270.200 C 12.620 272.755,12.928 273.469,13.247 274.095 C 13.441 274.477,13.600 275.062,13.600 275.395 C 13.600 275.728,13.780 276.000,14.000 276.000 C 14.220 276.000,14.400 276.439,14.400 276.976 C 14.400 277.513,14.580 278.064,14.800 278.200 C 15.020 278.336,15.200 278.797,15.200 279.224 C 15.200 279.651,15.380 280.000,15.600 280.000 C 15.820 280.000,16.000 280.360,16.000 280.800 C 16.000 281.240,16.180 281.600,16.400 281.600 C 16.620 281.600,16.800 281.960,16.800 282.400 C 16.800 282.840,16.980 283.200,17.200 283.200 C 17.420 283.200,17.600 283.650,17.600 284.200 C 17.600 284.750,17.780 285.200,18.000 285.200 C 18.220 285.200,18.400 285.453,18.400 285.762 C 18.400 286.428,20.068 289.741,20.500 289.933 C 20.665 290.007,20.800 290.412,20.800 290.833 C 20.800 291.255,20.980 291.600,21.200 291.600 C 21.420 291.600,21.600 291.960,21.600 292.400 C 21.600 292.840,21.780 293.200,22.000 293.200 C 22.220 293.200,22.400 293.560,22.400 294.000 C 22.400 294.440,22.580 294.800,22.800 294.800 C 23.020 294.800,23.200 295.036,23.200 295.325 C 23.200 295.613,23.560 296.236,24.000 296.708 C 24.440 297.180,24.800 297.748,24.800 297.970 C 24.800 298.642,26.126 301.200,26.474 301.200 C 26.653 301.200,26.800 301.560,26.800 302.000 C 26.800 302.440,26.980 302.800,27.200 302.800 C 27.420 302.800,27.600 302.993,27.600 303.228 C 27.600 303.463,28.140 304.441,28.800 305.400 C 29.460 306.359,30.000 307.297,30.000 307.484 C 30.000 307.671,30.360 308.083,30.800 308.400 C 31.240 308.717,31.600 309.257,31.600 309.600 C 31.600 309.943,31.960 310.483,32.400 310.800 C 32.840 311.117,33.200 311.657,33.200 312.000 C 33.200 312.343,33.560 312.883,34.000 313.200 C 34.440 313.517,34.800 314.057,34.800 314.400 C 34.800 314.743,35.160 315.283,35.600 315.600 C 36.040 315.917,36.400 316.407,36.400 316.688 C 36.400 316.970,36.580 317.200,36.800 317.200 C 37.020 317.200,37.200 317.430,37.200 317.712 C 37.200 317.993,37.560 318.483,38.000 318.800 C 38.440 319.117,38.800 319.625,38.800 319.928 C 38.800 320.231,39.340 320.983,40.000 321.600 C 40.660 322.217,41.200 322.836,41.200 322.977 C 41.200 323.264,41.469 323.610,43.199 325.542 C 43.859 326.281,44.400 327.042,44.400 327.234 C 44.400 327.426,45.390 328.573,46.600 329.783 C 47.810 330.993,48.800 332.157,48.800 332.371 C 48.800 332.584,50.770 334.703,53.179 337.079 C 58.486 342.316,57.684 341.514,62.921 346.821 C 65.297 349.230,67.416 351.200,67.629 351.200 C 67.843 351.200,69.007 352.190,70.217 353.400 C 71.427 354.610,72.571 355.600,72.758 355.600 C 72.946 355.600,73.887 356.320,74.849 357.200 C 75.812 358.080,76.753 358.800,76.939 358.800 C 77.126 358.800,77.783 359.340,78.400 360.000 C 79.017 360.660,79.769 361.200,80.072 361.200 C 80.375 361.200,80.883 361.560,81.200 362.000 C 81.517 362.440,82.007 362.800,82.288 362.800 C 82.570 362.800,82.800 362.980,82.800 363.200 C 82.800 363.420,83.030 363.600,83.312 363.600 C 83.593 363.600,84.083 363.960,84.400 364.400 C 84.717 364.840,85.257 365.200,85.600 365.200 C 85.943 365.200,86.483 365.560,86.800 366.000 C 87.117 366.440,87.657 366.800,88.000 366.800 C 88.343 366.800,88.883 367.160,89.200 367.600 C 89.517 368.040,90.057 368.400,90.400 368.400 C 90.743 368.400,91.283 368.760,91.600 369.200 C 91.917 369.640,92.329 370.000,92.516 370.000 C 92.703 370.000,93.641 370.540,94.600 371.200 C 95.559 371.860,96.537 372.400,96.772 372.400 C 97.007 372.400,97.200 372.580,97.200 372.800 C 97.200 373.020,97.560 373.200,98.000 373.200 C 98.440 373.200,98.800 373.347,98.800 373.526 C 98.800 373.874,101.358 375.200,102.030 375.200 C 102.252 375.200,102.820 375.560,103.292 376.000 C 103.764 376.440,104.387 376.800,104.675 376.800 C 104.964 376.800,105.200 376.980,105.200 377.200 C 105.200 377.420,105.560 377.600,106.000 377.600 C 106.440 377.600,106.800 377.780,106.800 378.000 C 106.800 378.220,107.160 378.400,107.600 378.400 C 108.040 378.400,108.400 378.580,108.400 378.800 C 108.400 379.020,108.745 379.200,109.167 379.200 C 109.588 379.200,109.993 379.335,110.067 379.500 C 110.259 379.932,113.572 381.600,114.238 381.600 C 114.547 381.600,114.800 381.780,114.800 382.000 C 114.800 382.220,115.250 382.400,115.800 382.400 C 116.350 382.400,116.800 382.580,116.800 382.800 C 116.800 383.020,117.160 383.200,117.600 383.200 C 118.040 383.200,118.400 383.380,118.400 383.600 C 118.400 383.820,118.760 384.000,119.200 384.000 C 119.640 384.000,120.000 384.180,120.000 384.400 C 120.000 384.620,120.349 384.800,120.776 384.800 C 121.203 384.800,121.664 384.980,121.800 385.200 C 121.936 385.420,122.487 385.600,123.024 385.600 C 123.561 385.600,124.000 385.780,124.000 386.000 C 124.000 386.220,124.272 386.400,124.605 386.400 C 124.938 386.400,125.523 386.559,125.905 386.753 C 126.531 387.072,127.245 387.380,129.800 388.438 C 132.162 389.416,139.350 391.600,140.206 391.600 C 140.753 391.600,141.200 391.780,141.200 392.000 C 141.200 392.220,141.830 392.400,142.600 392.400 C 143.370 392.400,144.000 392.580,144.000 392.800 C 144.000 393.020,144.630 393.200,145.400 393.200 C 146.170 393.200,146.800 393.380,146.800 393.600 C 146.800 393.820,147.430 394.000,148.200 394.000 C 148.970 394.000,149.600 394.180,149.600 394.400 C 149.600 394.620,150.320 394.800,151.200 394.800 C 152.080 394.800,152.800 394.980,152.800 395.200 C 152.800 395.420,153.700 395.600,154.800 395.600 C 155.900 395.600,156.800 395.780,156.800 396.000 C 156.800 396.220,157.520 396.400,158.400 396.400 C 159.280 396.400,160.000 396.580,160.000 396.800 C 160.000 397.020,160.990 397.200,162.200 397.200 C 163.410 397.200,164.400 397.380,164.400 397.600 C 164.400 397.820,165.379 398.000,166.576 398.000 C 167.773 398.000,168.864 398.180,169.000 398.400 C 169.285 398.861,172.000 398.951,171.999 398.500 C 171.999 398.335,149.499 375.700,122.000 348.200 L 72.002 298.200 134.301 297.998 L 196.600 297.796 133.900 297.698 L 71.200 297.600 71.200 200.000 L 71.200 102.400 199.895 102.400 L 328.589 102.400 362.932 136.700 C 400.805 174.526,398.255 172.000,398.571 172.000 C 398.973 172.000,398.816 169.257,398.400 169.000 C 398.180 168.864,398.000 167.773,398.000 166.576 C 398.000 165.379,397.820 164.400,397.600 164.400 C 397.380 164.400,397.200 163.410,397.200 162.200 C 397.200 160.990,397.020 160.000,396.800 160.000 C 396.580 160.000,396.400 159.280,396.400 158.400 C 396.400 157.520,396.220 156.800,396.000 156.800 C 395.780 156.800,395.600 155.900,395.600 154.800 C 395.600 153.700,395.420 152.800,395.200 152.800 C 394.980 152.800,394.800 152.080,394.800 151.200 C 394.800 150.320,394.620 149.600,394.400 149.600 C 394.180 149.600,394.000 148.970,394.000 148.200 C 394.000 147.430,393.820 146.800,393.600 146.800 C 393.380 146.800,393.200 146.170,393.200 145.400 C 393.200 144.630,393.020 144.000,392.800 144.000 C 392.580 144.000,392.400 143.370,392.400 142.600 C 392.400 141.830,392.220 141.200,392.000 141.200 C 391.780 141.200,391.600 140.753,391.600 140.206 C 391.600 139.350,389.416 132.162,388.438 129.800 C 387.380 127.245,387.072 126.531,386.753 125.905 C 386.559 125.523,386.400 124.938,386.400 124.605 C 386.400 124.272,386.220 124.000,386.000 124.000 C 385.780 124.000,385.600 123.561,385.600 123.024 C 385.600 122.487,385.420 121.936,385.200 121.800 C 384.980 121.664,384.800 121.203,384.800 120.776 C 384.800 120.349,384.620 120.000,384.400 120.000 C 384.180 120.000,384.000 119.640,384.000 119.200 C 384.000 118.760,383.820 118.400,383.600 118.400 C 383.380 118.400,383.200 118.040,383.200 117.600 C 383.200 117.160,383.020 116.800,382.800 116.800 C 382.580 116.800,382.400 116.350,382.400 115.800 C 382.400 115.250,382.220 114.800,382.000 114.800 C 381.780 114.800,381.600 114.547,381.600 114.238 C 381.600 113.572,379.932 110.259,379.500 110.067 C 379.335 109.993,379.200 109.588,379.200 109.167 C 379.200 108.745,379.020 108.400,378.800 108.400 C 378.580 108.400,378.400 108.040,378.400 107.600 C 378.400 107.160,378.220 106.800,378.000 106.800 C 377.780 106.800,377.600 106.440,377.600 106.000 C 377.600 105.560,377.420 105.200,377.200 105.200 C 376.980 105.200,376.800 104.964,376.800 104.675 C 376.800 104.387,376.440 103.764,376.000 103.292 C 375.560 102.820,375.200 102.252,375.200 102.030 C 375.200 101.358,373.874 98.800,373.526 98.800 C 373.347 98.800,373.200 98.440,373.200 98.000 C 373.200 97.560,373.020 97.200,372.800 97.200 C 372.580 97.200,372.400 97.007,372.400 96.772 C 372.400 96.537,371.860 95.559,371.200 94.600 C 370.540 93.641,370.000 92.703,370.000 92.516 C 370.000 92.329,369.640 91.917,369.200 91.600 C 368.760 91.283,368.400 90.743,368.400 90.400 C 368.400 90.057,368.040 89.517,367.600 89.200 C 367.160 88.883,366.800 88.343,366.800 88.000 C 366.800 87.657,366.440 87.117,366.000 86.800 C 365.560 86.483,365.200 85.943,365.200 85.600 C 365.200 85.257,364.840 84.717,364.400 84.400 C 363.960 84.083,363.600 83.593,363.600 83.312 C 363.600 83.030,363.420 82.800,363.200 82.800 C 362.980 82.800,362.800 82.570,362.800 82.288 C 362.800 82.007,362.440 81.517,362.000 81.200 C 361.560 80.883,361.200 80.375,361.200 80.072 C 361.200 79.769,360.660 79.017,360.000 78.400 C 359.340 77.783,358.800 77.126,358.800 76.939 C 358.800 76.753,358.080 75.812,357.200 74.849 C 356.320 73.887,355.600 72.946,355.600 72.758 C 355.600 72.571,354.610 71.427,353.400 70.217 C 352.190 69.007,351.200 67.843,351.200 67.629 C 351.200 67.416,349.230 65.297,346.821 62.921 C 341.514 57.684,342.316 58.486,337.079 53.179 C 334.703 50.770,332.584 48.800,332.371 48.800 C 332.157 48.800,330.993 47.810,329.783 46.600 C 328.573 45.390,327.426 44.400,327.234 44.400 C 327.042 44.400,326.329 43.905,325.651 43.300 C 323.648 41.514,323.248 41.200,322.977 41.200 C 322.836 41.200,322.217 40.660,321.600 40.000 C 320.983 39.340,320.231 38.800,319.928 38.800 C 319.625 38.800,319.117 38.440,318.800 38.000 C 318.483 37.560,317.993 37.200,317.712 37.200 C 317.430 37.200,317.200 37.020,317.200 36.800 C 317.200 36.580,316.970 36.400,316.688 36.400 C 316.407 36.400,315.917 36.040,315.600 35.600 C 315.283 35.160,314.743 34.800,314.400 34.800 C 314.057 34.800,313.517 34.440,313.200 34.000 C 312.883 33.560,312.343 33.200,312.000 33.200 C 311.657 33.200,311.117 32.840,310.800 32.400 C 310.483 31.960,309.943 31.600,309.600 31.600 C 309.257 31.600,308.717 31.240,308.400 30.800 C 308.083 30.360,307.671 30.000,307.484 30.000 C 307.297 30.000,306.359 29.460,305.400 28.800 C 304.441 28.140,303.463 27.600,303.228 27.600 C 302.993 27.600,302.800 27.420,302.800 27.200 C 302.800 26.980,302.440 26.800,302.000 26.800 C 301.560 26.800,301.200 26.653,301.200 26.474 C 301.200 26.126,298.642 24.800,297.970 24.800 C 297.748 24.800,297.180 24.440,296.708 24.000 C 296.236 23.560,295.613 23.200,295.325 23.200 C 295.036 23.200,294.800 23.020,294.800 22.800 C 294.800 22.580,294.440 22.400,294.000 22.400 C 293.560 22.400,293.200 22.220,293.200 22.000 C 293.200 21.780,292.840 21.600,292.400 21.600 C 291.960 21.600,291.600 21.420,291.600 21.200 C 291.600 20.980,291.255 20.800,290.833 20.800 C 290.412 20.800,290.007 20.665,289.933 20.500 C 289.741 20.068,286.428 18.400,285.762 18.400 C 285.453 18.400,285.200 18.220,285.200 18.000 C 285.200 17.780,284.750 17.600,284.200 17.600 C 283.650 17.600,283.200 17.420,283.200 17.200 C 283.200 16.980,282.840 16.800,282.400 16.800 C 281.960 16.800,281.600 16.620,281.600 16.400 C 281.600 16.180,281.240 16.000,280.800 16.000 C 280.360 16.000,280.000 15.820,280.000 15.600 C 280.000 15.380,279.651 15.200,279.224 15.200 C 278.797 15.200,278.336 15.020,278.200 14.800 C 278.064 14.580,277.513 14.400,276.976 14.400 C 276.439 14.400,276.000 14.220,276.000 14.000 C 276.000 13.780,275.728 13.600,275.395 13.600 C 275.062 13.600,274.477 13.441,274.095 13.247 C 273.713 13.052,272.905 12.692,272.300 12.447 C 271.695 12.201,270.795 11.827,270.300 11.615 C 268.047 10.652,260.688 8.400,259.794 8.400 C 259.247 8.400,258.800 8.220,258.800 8.000 C 258.800 7.780,258.170 7.600,257.400 7.600 C 256.630 7.600,256.000 7.420,256.000 7.200 C 256.000 6.980,255.370 6.800,254.600 6.800 C 253.830 6.800,253.200 6.620,253.200 6.400 C 253.200 6.180,252.570 6.000,251.800 6.000 C 251.030 6.000,250.400 5.820,250.400 5.600 C 250.400 5.380,249.680 5.200,248.800 5.200 C 247.920 5.200,247.200 5.020,247.200 4.800 C 247.200 4.580,246.300 4.400,245.200 4.400 C 244.100 4.400,243.200 4.220,243.200 4.000 C 243.200 3.780,242.480 3.600,241.600 3.600 C 240.720 3.600,240.000 3.420,240.000 3.200 C 240.000 2.980,239.010 2.800,237.800 2.800 C 236.590 2.800,235.600 2.620,235.600 2.400 C 235.600 2.180,234.621 2.000,233.424 2.000 C 232.227 2.000,231.136 1.820,231.000 1.600 C 230.864 1.380,229.518 1.200,228.010 1.200 C 226.233 1.200,225.210 1.031,225.107 0.720 C 224.948 0.244,188.291 -0.109,178.700 0.273 M84.600 108.441 C 80.532 109.690,78.695 115.489,81.289 118.890 C 85.484 124.390,93.600 121.681,93.600 114.780 C 93.600 110.036,89.290 107.000,84.600 108.441 M105.800 108.265 C 103.025 109.015,100.534 112.804,100.921 115.687 C 101.766 121.988,110.035 123.957,113.521 118.688 C 116.945 113.515,111.846 106.631,105.800 108.265 M126.600 108.265 C 120.974 109.786,120.250 118.465,125.534 121.061 C 133.231 124.843,139.399 114.184,132.398 109.199 C 131.220 108.360,128.105 107.858,126.600 108.265 M398.800 176.600 C 398.800 177.590,398.980 178.400,399.200 178.400 C 399.420 178.400,399.600 177.590,399.600 176.600 C 399.600 175.610,399.420 174.800,399.200 174.800 C 398.980 174.800,398.800 175.610,398.800 176.600 M174.800 399.200 C 174.800 399.420,175.610 399.600,176.600 399.600 C 177.590 399.600,178.400 399.420,178.400 399.200 C 178.400 398.980,177.590 398.800,176.600 398.800 C 175.610 398.800,174.800 398.980,174.800 399.200 " stroke="none" fill="#fb6b3b" fill-rule="evenodd"></path><path id="path4" d="M200.400 114.800 L 200.400 127.200 264.189 127.200 L 327.978 127.200 328.089 114.800 L 328.200 102.400 264.300 102.400 L 200.400 102.400 200.400 114.800 M95.738 140.389 C 88.902 141.854,84.418 147.083,84.408 153.600 C 84.398 160.674,87.674 163.561,99.870 167.229 C 105.086 168.798,106.898 170.606,105.342 172.690 C 103.165 175.606,92.734 174.024,87.891 170.042 C 87.462 169.690,87.046 169.606,86.839 169.829 C 86.095 170.635,82.800 177.322,82.800 178.026 C 82.800 178.762,87.764 181.570,88.234 181.100 C 88.344 180.990,87.256 180.332,85.817 179.638 C 84.378 178.944,83.200 178.231,83.200 178.055 C 83.200 177.773,86.696 170.809,87.008 170.469 C 87.075 170.397,88.180 170.870,89.464 171.520 C 98.468 176.076,106.400 176.062,106.400 171.491 C 106.400 169.235,104.763 168.254,96.600 165.623 C 87.495 162.689,84.988 160.085,85.022 153.600 C 85.045 149.459,85.944 147.310,88.757 144.679 C 90.499 143.049,91.314 142.566,94.553 141.241 C 95.981 140.656,104.503 140.613,105.571 141.185 C 105.998 141.413,106.722 141.600,107.179 141.600 C 107.637 141.600,108.323 141.759,108.705 141.953 C 109.087 142.148,109.850 142.489,110.400 142.713 C 115.338 144.717,115.270 144.574,113.191 148.621 C 111.095 152.698,111.234 152.601,109.166 151.422 C 102.507 147.629,94.400 148.061,94.400 152.210 C 94.400 153.648,96.131 155.756,97.668 156.188 C 98.181 156.332,98.960 156.598,99.400 156.780 C 99.840 156.961,101.010 157.337,102.000 157.615 C 113.167 160.755,116.400 163.681,116.400 170.647 C 116.400 177.994,111.685 182.309,102.960 182.948 C 98.865 183.248,91.077 182.373,90.573 181.556 C 90.452 181.360,89.958 181.205,89.476 181.212 C 88.010 181.233,89.549 181.912,93.077 182.801 C 106.309 186.135,116.816 180.793,116.874 170.701 C 116.918 163.130,113.735 160.490,99.417 156.218 C 95.404 155.020,93.800 152.564,95.755 150.608 C 97.768 148.596,102.495 148.932,108.079 151.485 C 111.705 153.142,111.324 153.336,113.761 148.600 C 115.894 144.454,116.005 144.768,111.669 142.729 C 107.003 140.535,99.915 139.494,95.738 140.389 M137.800 140.245 C 120.746 142.669,114.023 164.981,126.516 177.689 C 131.986 183.252,140.726 185.083,147.584 182.103 L 150.569 180.807 151.803 182.003 C 153.017 183.180,153.110 183.200,157.295 183.200 C 161.755 183.200,162.636 182.868,161.325 181.679 C 158.287 178.922,156.244 175.941,156.802 175.076 C 161.621 167.590,162.206 159.714,158.532 151.782 C 158.130 150.912,157.701 150.110,157.581 150.000 C 157.460 149.890,156.923 149.170,156.387 148.400 C 152.345 142.591,144.747 139.257,137.800 140.245 M166.588 140.888 C 166.480 141.169,166.439 150.760,166.496 162.200 L 166.600 183.000 181.800 183.000 L 197.000 183.000 197.115 178.833 C 197.259 173.604,198.158 174.013,186.504 174.006 L 176.809 174.000 176.704 157.300 L 176.600 140.600 171.692 140.488 C 167.988 140.403,166.736 140.501,166.588 140.888 M145.400 141.200 C 145.536 141.420,145.991 141.600,146.411 141.600 C 147.481 141.600,150.817 143.524,153.337 145.594 C 155.526 147.392,159.200 153.360,159.200 155.116 C 159.200 155.514,159.405 156.045,159.655 156.295 C 161.694 158.334,159.891 168.566,156.400 174.764 L 155.632 176.128 157.571 178.364 C 158.638 179.594,159.891 180.943,160.355 181.362 C 161.762 182.631,161.370 182.800,157.027 182.800 L 152.854 182.800 152.000 181.600 C 151.109 180.348,150.463 180.149,149.295 180.767 C 145.960 182.531,144.766 182.800,140.284 182.800 C 137.796 182.800,135.589 182.657,135.380 182.482 C 135.171 182.307,134.280 181.921,133.400 181.625 C 129.517 180.319,122.800 174.019,122.800 171.683 C 122.800 171.485,122.501 170.724,122.136 169.992 C 118.781 163.268,120.745 152.621,126.400 146.877 C 128.684 144.556,131.646 142.400,132.548 142.400 C 132.881 142.400,133.264 142.220,133.400 142.000 C 133.536 141.780,134.076 141.600,134.600 141.600 C 135.124 141.600,135.664 141.420,135.800 141.200 C 135.941 140.971,137.996 140.800,140.600 140.800 C 143.204 140.800,145.259 140.971,145.400 141.200 M176.496 157.700 L 176.600 174.600 186.700 174.707 L 196.800 174.814 196.800 178.812 L 196.800 182.810 181.900 182.705 L 167.000 182.600 166.896 161.700 L 166.793 140.800 171.592 140.800 L 176.391 140.800 176.496 157.700 M137.074 149.355 C 136.234 149.668,135.164 150.256,134.696 150.662 C 133.446 151.746,132.027 153.355,132.013 153.704 C 132.006 153.872,131.663 154.772,131.252 155.704 C 130.355 157.737,129.654 162.051,130.056 163.070 C 130.214 163.471,130.356 164.387,130.372 165.104 C 130.485 170.369,135.072 174.600,140.667 174.600 C 145.409 174.600,145.468 174.201,141.380 169.800 L 138.779 167.000 142.852 166.885 C 146.758 166.775,146.970 166.813,148.001 167.801 C 151.570 171.220,151.875 158.050,148.345 152.921 C 146.023 149.546,140.905 147.927,137.074 149.355 M144.455 150.217 C 149.064 152.562,152.179 162.656,149.670 167.116 L 149.154 168.033 147.946 167.016 C 146.834 166.080,146.434 166.000,142.869 166.006 C 137.377 166.015,137.320 166.119,140.735 169.901 C 144.053 173.576,144.127 173.813,142.048 174.146 C 135.520 175.190,130.691 169.955,130.691 161.834 C 130.691 152.495,137.551 146.705,144.455 150.217 M243.800 181.698 C 242.480 181.908,241.175 182.147,240.900 182.228 C 240.525 182.338,240.400 184.083,240.400 189.187 C 240.400 195.299,240.331 196.000,239.728 196.000 C 239.023 196.000,238.860 196.048,232.800 198.027 C 228.749 199.350,222.466 202.216,219.913 203.905 L 218.363 204.931 216.532 203.165 C 215.525 202.194,213.467 200.185,211.959 198.700 C 210.451 197.215,208.898 196.002,208.508 196.004 C 206.160 196.018,194.556 207.254,189.224 214.676 L 188.247 216.035 192.981 220.781 C 195.975 223.783,197.623 225.723,197.466 226.063 C 197.330 226.358,196.674 227.500,196.009 228.600 C 193.227 233.202,190.435 239.985,189.301 244.900 L 188.677 247.600 182.415 247.600 C 177.997 247.600,175.974 247.747,175.544 248.100 C 174.108 249.280,173.277 266.241,174.361 272.229 C 174.597 273.533,174.838 275.050,174.895 275.600 L 175.000 276.600 181.759 276.800 L 188.518 277.000 189.064 279.000 C 190.049 282.601,190.553 284.166,191.513 286.600 C 192.759 289.759,195.154 294.720,196.098 296.097 C 196.512 296.701,196.723 297.421,196.567 297.697 C 196.345 298.089,196.403 298.088,196.831 297.690 C 197.296 297.258,197.293 297.044,196.815 296.290 C 195.573 294.335,192.548 288.094,192.021 286.400 C 191.713 285.410,191.312 284.429,191.130 284.220 C 190.949 284.011,190.800 283.437,190.800 282.944 C 190.800 282.451,190.640 281.948,190.444 281.827 C 190.249 281.706,189.987 281.021,189.863 280.304 C 189.739 279.587,189.520 278.419,189.375 277.709 L 189.112 276.419 182.256 276.309 L 175.400 276.200 175.020 273.400 C 174.524 269.746,174.520 254.537,175.015 251.200 L 175.400 248.600 182.183 248.400 L 188.966 248.200 189.643 245.600 C 190.348 242.896,191.395 239.579,191.979 238.200 C 194.375 232.548,194.830 231.602,196.476 228.859 C 198.536 225.425,198.586 225.571,193.600 220.600 C 188.915 215.929,188.819 215.774,189.900 214.574 C 190.285 214.147,191.380 212.771,192.334 211.517 C 195.612 207.208,207.205 196.400,208.549 196.400 C 208.658 196.400,210.603 198.307,212.873 200.638 C 217.345 205.230,218.184 205.873,218.926 205.270 C 221.011 203.577,228.388 200.138,233.319 198.559 C 235.784 197.770,238.430 196.910,239.200 196.646 L 240.600 196.168 240.709 189.524 L 240.819 182.880 244.109 182.452 C 245.919 182.216,248.930 181.863,250.800 181.667 L 254.200 181.311 250.200 181.314 C 248.000 181.315,245.120 181.488,243.800 181.698 M259.000 181.433 C 270.272 182.593,269.154 181.691,269.290 189.726 L 269.400 196.171 270.800 196.544 C 277.680 198.377,281.446 199.934,290.543 204.702 L 291.686 205.301 296.149 200.851 C 298.604 198.403,300.864 196.400,301.171 196.400 C 303.602 196.400,320.800 213.392,320.800 215.794 C 320.800 216.048,318.738 218.301,316.218 220.799 L 311.636 225.342 312.886 227.571 C 316.504 234.027,318.725 239.268,320.272 245.000 L 321.028 247.800 325.014 247.831 L 329.000 247.863 325.214 247.631 L 321.427 247.400 321.070 246.000 C 320.240 242.752,317.924 236.056,316.998 234.232 C 316.449 233.150,316.000 232.040,316.000 231.766 C 316.000 231.491,315.865 231.207,315.700 231.133 C 315.535 231.060,314.967 230.145,314.437 229.100 C 313.908 228.055,313.344 227.200,313.184 227.200 C 311.492 227.200,312.780 225.007,316.862 220.939 C 319.348 218.460,321.200 216.288,321.200 215.852 C 321.200 213.133,303.810 195.600,301.114 195.600 C 300.874 195.600,298.670 197.580,296.218 200.000 C 291.497 204.657,291.175 204.832,289.600 203.600 C 289.050 203.170,288.390 202.814,288.133 202.809 C 287.877 202.804,287.607 202.655,287.533 202.477 C 287.352 202.039,279.437 198.580,277.200 197.962 C 276.210 197.689,275.229 197.315,275.020 197.133 C 274.811 196.950,274.271 196.797,273.820 196.794 C 273.369 196.791,272.280 196.538,271.400 196.232 L 269.800 195.676 269.600 188.966 L 269.400 182.256 268.200 181.919 C 267.540 181.734,264.840 181.511,262.200 181.425 C 259.560 181.339,258.120 181.343,259.000 181.433 M249.400 232.786 C 243.275 233.790,235.832 238.032,232.321 242.521 C 231.598 243.444,230.729 244.508,230.389 244.884 C 227.432 248.154,224.798 256.470,224.802 262.520 C 224.804 265.598,224.958 266.591,226.054 270.600 C 226.819 273.400,228.720 277.419,230.390 279.770 C 231.258 280.992,238.046 287.600,238.433 287.600 C 238.616 287.600,239.628 288.099,240.682 288.708 C 245.086 291.253,252.419 292.828,256.268 292.055 C 257.514 291.805,259.303 291.600,260.243 291.600 C 261.183 291.600,262.064 291.420,262.200 291.200 C 262.336 290.980,262.876 290.800,263.400 290.800 C 263.924 290.800,264.464 290.620,264.600 290.400 C 264.736 290.180,265.189 290.000,265.606 290.000 C 266.023 290.000,267.281 289.460,268.400 288.800 C 269.519 288.140,270.544 287.600,270.676 287.600 C 271.084 287.600,274.502 284.713,276.352 282.806 C 296.172 262.379,277.725 228.143,249.400 232.786 M260.881 233.558 C 261.387 233.755,262.610 234.148,263.600 234.431 C 266.224 235.182,271.154 237.715,272.997 239.261 C 276.003 241.781,279.596 245.812,279.599 246.667 C 279.599 246.923,279.742 247.193,279.916 247.267 C 280.557 247.537,282.317 251.900,283.146 255.271 C 286.259 267.927,280.158 282.276,269.400 287.604 C 268.740 287.931,268.110 288.289,268.000 288.399 C 267.469 288.932,265.928 289.600,265.229 289.600 C 264.799 289.600,264.336 289.780,264.200 290.000 C 264.064 290.220,263.438 290.400,262.810 290.400 C 262.181 290.400,261.601 290.597,261.521 290.837 C 261.325 291.425,249.178 291.513,247.922 290.935 C 247.415 290.702,246.280 290.293,245.400 290.027 C 235.463 287.022,227.236 277.039,225.765 266.200 C 225.271 262.559,225.705 255.430,226.449 254.970 C 226.642 254.851,226.800 254.311,226.800 253.771 C 226.800 253.231,226.957 252.477,227.150 252.095 C 227.342 251.713,227.855 250.680,228.288 249.800 C 229.737 246.860,230.817 245.138,232.012 243.864 C 232.663 243.169,233.197 242.485,233.198 242.345 C 233.208 241.022,241.882 235.620,246.358 234.148 C 249.215 233.209,258.970 232.813,260.881 233.558 M320.790 277.426 C 320.576 277.990,320.400 278.681,320.400 278.960 C 320.400 279.640,318.884 284.420,318.391 285.295 C 318.176 285.677,318.000 286.167,318.000 286.385 C 318.000 286.602,317.460 287.959,316.800 289.400 C 316.140 290.841,315.600 292.096,315.600 292.189 C 315.600 292.281,314.970 293.432,314.200 294.746 C 312.740 297.236,312.600 297.600,313.102 297.600 C 313.269 297.600,313.657 297.015,313.965 296.300 C 314.273 295.585,314.857 294.522,315.263 293.938 C 315.668 293.354,316.000 292.589,316.000 292.238 C 316.000 291.887,316.180 291.600,316.400 291.600 C 316.620 291.600,316.800 291.347,316.800 291.038 C 316.800 290.729,317.152 289.784,317.582 288.938 C 318.622 286.891,320.696 280.623,321.030 278.514 L 321.298 276.828 325.149 276.698 L 329.000 276.567 325.090 276.484 C 321.228 276.401,321.175 276.413,320.790 277.426 " stroke="none" fill="#89aab6" fill-rule="evenodd"></path></g></svg>